# Blender 3.6.2
# www.blender.org
mtllib 1.mtl
o Curve
v 0.000000 0.000000 -0.023843
v 0.000000 0.000000 -0.021868
v 0.001826 0.000000 -0.020306
v 0.003461 0.000000 -0.018776
v 0.004922 0.000000 -0.017256
v 0.006229 0.000000 -0.015721
v 0.007401 0.000000 -0.014149
v 0.008456 0.000000 -0.012516
v 0.009414 0.000000 -0.010799
v 0.010294 0.000000 -0.008975
v 0.011114 0.000000 -0.007020
v 0.011893 0.000000 -0.004912
v 0.012651 0.000000 -0.002627
v 0.013406 0.000000 -0.000141
v 0.014106 0.000000 -0.000227
v 0.016040 0.000000 -0.000465
v 0.018962 0.000000 -0.000824
v 0.022625 0.000000 -0.001275
v 0.026782 0.000000 -0.001786
v 0.031186 0.000000 -0.002328
v 0.035590 0.000000 -0.002870
v 0.039747 0.000000 -0.003381
v 0.043410 0.000000 -0.003831
v 0.046332 0.000000 -0.004191
v 0.048267 0.000000 -0.004429
v 0.048967 0.000000 -0.004515
v 0.048967 0.000000 -0.004797
v 0.048381 0.000000 -0.009096
v 0.047534 0.000000 -0.013259
v 0.046413 0.000000 -0.017303
v 0.045005 0.000000 -0.021247
v 0.043301 0.000000 -0.025108
v 0.041286 0.000000 -0.028905
v 0.038949 0.000000 -0.032657
v 0.036278 0.000000 -0.036380
v 0.033261 0.000000 -0.040093
v 0.029886 0.000000 -0.043815
v 0.026141 0.000000 -0.047562
v 0.022014 0.000000 -0.051355
v 0.021975 0.000000 -0.051355
v 0.021867 0.000000 -0.051355
v 0.021705 0.000000 -0.051355
v 0.021502 0.000000 -0.051355
v 0.021271 0.000000 -0.051355
v 0.021026 0.000000 -0.051355
v 0.020781 0.000000 -0.051355
v 0.020550 0.000000 -0.051355
v 0.020347 0.000000 -0.051355
v 0.020185 0.000000 -0.051355
v 0.020077 0.000000 -0.051355
v 0.020038 0.000000 -0.051355
v 0.000000 -0.002262 -0.023843
v 0.000000 -0.002262 -0.021868
v 0.001826 -0.002262 -0.020306
v 0.003461 -0.002262 -0.018776
v 0.004922 -0.002262 -0.017256
v 0.006229 -0.002262 -0.015721
v 0.007401 -0.002262 -0.014149
v 0.008456 -0.002262 -0.012516
v 0.009414 -0.002262 -0.010799
v 0.010294 -0.002262 -0.008975
v 0.011114 -0.002262 -0.007020
v 0.011893 -0.002262 -0.004912
v 0.012651 -0.002262 -0.002627
v 0.013406 -0.002262 -0.000141
v 0.014106 -0.002262 -0.000227
v 0.016040 -0.002262 -0.000465
v 0.018962 -0.002262 -0.000824
v 0.022625 -0.002262 -0.001275
v 0.026782 -0.002262 -0.001786
v 0.031186 -0.002262 -0.002328
v 0.035590 -0.002262 -0.002870
v 0.039747 -0.002262 -0.003381
v 0.043410 -0.002262 -0.003831
v 0.046332 -0.002262 -0.004191
v 0.048267 -0.002262 -0.004429
v 0.048967 -0.002262 -0.004515
v 0.048967 -0.002262 -0.004797
v 0.048381 -0.002262 -0.009096
v 0.047534 -0.002262 -0.013259
v 0.046413 -0.002262 -0.017303
v 0.045005 -0.002262 -0.021247
v 0.043301 -0.002262 -0.025108
v 0.041286 -0.002262 -0.028905
v 0.038949 -0.002262 -0.032657
v 0.036278 -0.002262 -0.036380
v 0.033261 -0.002262 -0.040093
v 0.029886 -0.002262 -0.043815
v 0.026141 -0.002262 -0.047562
v 0.022014 -0.002262 -0.051355
v 0.021975 -0.002262 -0.051355
v 0.021867 -0.002262 -0.051355
v 0.021705 -0.002262 -0.051355
v 0.021502 -0.002262 -0.051355
v 0.021271 -0.002262 -0.051355
v 0.021026 -0.002262 -0.051355
v 0.020781 -0.002262 -0.051355
v 0.020550 -0.002262 -0.051355
v 0.020347 -0.002262 -0.051355
v 0.020185 -0.002262 -0.051355
v 0.020077 -0.002262 -0.051355
v 0.020038 -0.002262 -0.051355
vn -0.0000 -1.0000 -0.0000
vn -0.0000 1.0000 -0.0000
vn 0.2425 0.9701 -0.0000
vn -0.1221 -0.0000 -0.9925
vn 1.0000 -0.0000 -0.0000
vn -0.0000 -0.0000 1.0000
vn 0.6833 -0.0000 -0.7301
vn 0.7210 -0.0000 -0.6929
vn -1.0000 -0.0000 -0.0000
vn 0.7613 -0.0000 -0.6484
vn 0.8018 -0.0000 -0.5976
vn -0.7761 -0.0000 0.6306
vn -0.9909 -0.0000 0.1349
vn 0.8398 -0.0000 -0.5428
vn 0.8733 -0.0000 -0.4873
vn -0.9799 -0.0000 0.1995
vn 0.9008 -0.0000 -0.4343
vn 0.9221 -0.0000 -0.3869
vn -0.7408 -0.0000 0.6718
vn -0.9637 -0.0000 0.2672
vn 0.9380 -0.0000 -0.3467
vn 0.9492 -0.0000 -0.3147
vn 0.9568 -0.0000 -0.2906
vn -0.9418 -0.0000 0.3360
vn -0.7074 -0.0000 0.7068
vn -0.6766 -0.0000 0.7364
vn -0.9148 -0.0000 0.4039
vn -0.8833 -0.0000 0.4687
vn 0.6499 -0.0000 -0.7600
vn -0.8488 -0.0000 0.5288
vn 0.8083 -0.0000 0.5887
vn -0.8125 -0.0000 0.5829
vt 0.000000 0.000000
vt 1.000000 0.000000
vt 0.980000 0.000000
vt 0.960000 0.000000
vt 0.940000 0.000000
vt 0.920000 0.000000
vt 0.900000 0.000000
vt 0.880000 0.000000
vt 0.860000 0.000000
vt 0.840000 0.000000
vt 0.820000 0.000000
vt 0.800000 0.000000
vt 0.780000 0.000000
vt 0.760000 0.000000
vt 0.740000 0.000000
vt 0.720000 0.000000
vt 0.700000 0.000000
vt 0.680000 0.000000
vt 0.660000 0.000000
vt 0.640000 0.000000
vt 0.620000 0.000000
vt 0.600000 0.000000
vt 0.020000 0.000000
vt 0.040000 0.000000
vt 0.580000 0.000000
vt 0.060000 0.000000
vt 0.080000 0.000000
vt 0.560000 0.000000
vt 0.100000 0.000000
vt 0.120000 0.000000
vt 0.140000 0.000000
vt 0.540000 0.000000
vt 0.160000 0.000000
vt 0.180000 0.000000
vt 0.520000 0.000000
vt 0.200000 0.000000
vt 0.220000 0.000000
vt 0.240000 0.000000
vt 0.500000 0.000000
vt 0.480000 0.000000
vt 0.460000 0.000000
vt 0.440000 0.000000
vt 0.420000 0.000000
vt 0.400000 0.000000
vt 0.380000 0.000000
vt 0.260000 0.000000
vt 0.320000 0.000000
vt 0.340000 0.000000
vt 0.360000 0.000000
vt 0.300000 0.000000
vt 0.280000 0.000000
s 0
usemtl SVGMat.003
f 1/1/1 51/2/1 50/3/1
f 1/1/1 50/3/1 49/4/1
f 1/1/1 49/4/1 48/5/1
f 1/1/1 48/5/1 47/6/1
f 1/1/1 47/6/1 46/7/1
f 1/1/1 46/7/1 45/8/1
f 1/1/1 45/8/1 44/9/1
f 1/1/1 44/9/1 43/10/1
f 1/1/1 43/10/1 42/11/1
f 1/1/1 42/11/1 41/12/1
f 1/1/1 41/12/1 40/13/1
f 1/1/1 40/13/1 39/14/1
f 1/1/1 39/14/1 38/15/1
f 1/1/1 38/15/1 37/16/1
f 1/1/1 37/16/1 36/17/1
f 1/1/1 36/17/1 35/18/1
f 1/1/1 35/18/1 34/19/1
f 1/1/1 34/19/1 33/20/1
f 1/1/1 33/20/1 32/21/1
f 1/1/1 32/21/1 31/22/1
f 2/23/1 1/1/1 31/22/1
f 3/24/1 2/23/1 31/22/1
f 3/24/1 31/22/1 30/25/1
f 4/26/1 3/24/1 30/25/1
f 5/27/1 4/26/1 30/25/1
f 5/27/1 30/25/1 29/28/1
f 6/29/1 5/27/1 29/28/1
f 7/30/1 6/29/1 29/28/1
f 8/31/1 7/30/1 29/28/1
f 8/31/1 29/28/1 28/32/1
f 9/33/1 8/31/1 28/32/1
f 10/34/1 9/33/1 28/32/1
f 10/34/1 28/32/1 27/35/1
f 11/36/1 10/34/1 27/35/1
f 12/37/1 11/36/1 27/35/1
f 13/38/1 12/37/1 27/35/1
f 13/38/1 27/35/1 26/39/1
f 13/38/1 26/39/1 25/40/1
f 13/38/1 25/40/1 24/41/1
f 13/38/1 24/41/1 23/42/1
f 13/38/1 23/42/1 22/43/1
f 13/38/1 22/43/1 21/44/1
f 13/38/1 21/44/1 20/45/1
f 14/46/1 13/38/1 17/47/1
f 17/47/1 13/38/1 18/48/1
f 18/48/1 13/38/1 19/49/1
f 19/49/1 13/38/1 20/45/1
f 14/46/1 17/47/1 16/50/1
f 14/46/2 16/50/2 15/51/2
f 52/1/2 101/3/2 102/2/2
f 52/1/2 100/4/2 101/3/2
f 52/1/2 99/5/2 100/4/2
f 52/1/2 98/6/2 99/5/2
f 52/1/2 97/7/2 98/6/2
f 52/1/2 96/8/2 97/7/2
f 52/1/2 95/9/2 96/8/2
f 52/1/2 94/10/2 95/9/2
f 52/1/2 93/11/2 94/10/2
f 52/1/2 92/12/2 93/11/2
f 52/1/2 91/13/2 92/12/2
f 52/1/2 90/14/2 91/13/2
f 52/1/2 89/15/2 90/14/2
f 52/1/2 88/16/2 89/15/2
f 52/1/2 87/17/2 88/16/2
f 52/1/2 86/18/2 87/17/2
f 52/1/2 85/19/2 86/18/2
f 52/1/2 84/20/2 85/19/2
f 52/1/2 83/21/2 84/20/2
f 52/1/2 82/22/2 83/21/2
f 53/23/2 82/22/2 52/1/2
f 54/24/2 82/22/2 53/23/2
f 54/24/2 81/25/2 82/22/2
f 55/26/2 81/25/2 54/24/2
f 56/27/2 81/25/2 55/26/2
f 56/27/2 80/28/2 81/25/2
f 57/29/2 80/28/2 56/27/2
f 58/30/2 80/28/2 57/29/2
f 59/31/2 80/28/2 58/30/2
f 59/31/2 79/32/2 80/28/2
f 60/33/2 79/32/2 59/31/2
f 61/34/2 79/32/2 60/33/2
f 61/34/2 78/35/2 79/32/2
f 62/36/2 78/35/2 61/34/2
f 63/37/2 78/35/2 62/36/2
f 64/38/2 78/35/2 63/37/2
f 64/38/2 77/39/2 78/35/2
f 64/38/2 76/40/2 77/39/2
f 64/38/2 75/41/2 76/40/2
f 64/38/2 74/42/2 75/41/2
f 64/38/2 73/43/2 74/42/2
f 64/38/2 72/44/2 73/43/2
f 64/38/2 71/45/2 72/44/2
f 65/46/2 68/47/2 64/38/2
f 68/47/2 69/48/2 64/38/2
f 69/48/2 70/49/2 64/38/2
f 70/49/2 71/45/2 64/38/2
f 65/46/3 67/50/3 68/47/3
f 65/46/2 66/51/2 67/50/2
f 21/44/4 22/43/4 73/43/4 72/44/4
f 25/40/4 26/39/4 77/39/4 76/40/4
f 1/1/5 2/23/5 53/23/5 52/1/5
f 23/42/4 24/41/4 75/41/4 74/42/4
f 45/8/6 46/7/6 97/7/6 96/8/6
f 42/11/6 43/10/6 94/10/6 93/11/6
f 40/13/6 41/12/6 92/12/6 91/13/6
f 3/24/7 4/26/7 55/26/7 54/24/7
f 15/51/4 16/50/4 67/50/4 66/51/4
f 4/26/8 5/27/8 56/27/8 55/26/8
f 26/39/9 27/35/9 78/35/9 77/39/9
f 5/27/10 6/29/10 57/29/10 56/27/10
f 46/7/6 47/6/6 98/6/6 97/7/6
f 6/29/11 7/30/11 58/30/11 57/29/11
f 35/18/12 36/17/12 87/17/12 86/18/12
f 27/35/13 28/32/13 79/32/13 78/35/13
f 7/30/14 8/31/14 59/31/14 58/30/14
f 47/6/6 48/5/6 99/5/6 98/6/6
f 8/31/15 9/33/15 60/33/15 59/31/15
f 28/32/16 29/28/16 80/28/16 79/32/16
f 9/33/17 10/34/17 61/34/17 60/33/17
f 16/50/4 17/47/4 68/47/4 67/50/4
f 48/5/6 49/4/6 100/4/6 99/5/6
f 10/34/18 11/36/18 62/36/18 61/34/18
f 36/17/19 37/16/19 88/16/19 87/17/19
f 29/28/20 30/25/20 81/25/20 80/28/20
f 11/36/21 12/37/21 63/37/21 62/36/21
f 49/4/6 50/3/6 101/3/6 100/4/6
f 12/37/22 13/38/22 64/38/22 63/37/22
f 22/43/4 23/42/4 74/42/4 73/43/4
f 13/38/23 14/46/23 65/46/23 64/38/23
f 30/25/24 31/22/24 82/22/24 81/25/24
f 14/46/4 15/51/4 66/51/4 65/46/4
f 37/16/25 38/15/25 89/15/25 88/16/25
f 50/3/6 51/2/6 102/2/6 101/3/6
f 43/10/6 44/9/6 95/9/6 94/10/6
f 41/12/6 42/11/6 93/11/6 92/12/6
f 38/15/26 39/14/26 90/14/26 89/15/26
f 31/22/27 32/21/27 83/21/27 82/22/27
f 17/47/4 18/48/4 69/48/4 68/47/4
f 19/49/4 20/45/4 71/45/4 70/49/4
f 32/21/28 33/20/28 84/20/28 83/21/28
f 18/48/4 19/49/4 70/49/4 69/48/4
f 39/14/6 40/13/6 91/13/6 90/14/6
f 2/23/29 3/24/29 54/24/29 53/23/29
f 24/41/4 25/40/4 76/40/4 75/41/4
f 33/20/30 34/19/30 85/19/30 84/20/30
f 20/45/4 21/44/4 72/44/4 71/45/4
f 51/2/31 1/1/31 52/1/31 102/2/31
f 34/19/32 35/18/32 86/18/32 85/19/32
f 44/9/6 45/8/6 96/8/6 95/9/6
