# Blender 3.6.2
# www.blender.org
mtllib 6.mtl
o Curve
v 0.016934 0.000000 -0.000423
v 0.015665 0.000000 -0.001384
v 0.014442 0.000000 -0.002252
v 0.013245 0.000000 -0.003037
v 0.012053 0.000000 -0.003746
v 0.010847 0.000000 -0.004386
v 0.009606 0.000000 -0.004966
v 0.008309 0.000000 -0.005494
v 0.006936 0.000000 -0.005976
v 0.005468 0.000000 -0.006422
v 0.003883 0.000000 -0.006840
v 0.002161 0.000000 -0.007236
v 0.000282 0.000000 -0.007619
v 0.000627 0.000000 -0.009878
v 0.001578 0.000000 -0.016125
v 0.003016 0.000000 -0.025563
v 0.004819 0.000000 -0.037393
v 0.006864 0.000000 -0.050817
v 0.009031 0.000000 -0.065040
v 0.011198 0.000000 -0.079262
v 0.013244 0.000000 -0.092687
v 0.015046 0.000000 -0.104517
v 0.016484 0.000000 -0.113954
v 0.017436 0.000000 -0.120201
v 0.017780 0.000000 -0.122461
v 0.024860 0.000000 -0.121146
v 0.031418 0.000000 -0.119755
v 0.037535 0.000000 -0.118255
v 0.043295 0.000000 -0.116613
v 0.048780 0.000000 -0.114798
v 0.054071 0.000000 -0.112777
v 0.059251 0.000000 -0.110518
v 0.064402 0.000000 -0.107989
v 0.069607 0.000000 -0.105158
v 0.074946 0.000000 -0.101992
v 0.080504 0.000000 -0.098459
v 0.086362 0.000000 -0.094526
v 0.085026 0.000000 -0.092680
v 0.081334 0.000000 -0.087577
v 0.075756 0.000000 -0.079867
v 0.068764 0.000000 -0.070202
v 0.060830 0.000000 -0.059235
v 0.052424 0.000000 -0.047616
v 0.044018 0.000000 -0.035997
v 0.036083 0.000000 -0.025029
v 0.029092 0.000000 -0.015365
v 0.023514 0.000000 -0.007655
v 0.019821 0.000000 -0.002551
v 0.018486 0.000000 -0.000705
v 0.018455 0.000000 -0.000700
v 0.018371 0.000000 -0.000685
v 0.018243 0.000000 -0.000661
v 0.018083 0.000000 -0.000632
v 0.017902 0.000000 -0.000599
v 0.017710 0.000000 -0.000564
v 0.017518 0.000000 -0.000529
v 0.017336 0.000000 -0.000496
v 0.017176 0.000000 -0.000467
v 0.017049 0.000000 -0.000444
v 0.016964 0.000000 -0.000429
v 0.016934 -0.002479 -0.000423
v 0.015665 -0.002479 -0.001384
v 0.014442 -0.002479 -0.002252
v 0.013245 -0.002479 -0.003037
v 0.012053 -0.002479 -0.003746
v 0.010847 -0.002479 -0.004386
v 0.009606 -0.002479 -0.004966
v 0.008309 -0.002479 -0.005494
v 0.006936 -0.002479 -0.005976
v 0.005468 -0.002479 -0.006422
v 0.003883 -0.002479 -0.006840
v 0.002161 -0.002479 -0.007236
v 0.000282 -0.002479 -0.007619
v 0.000627 -0.002479 -0.009878
v 0.001578 -0.002479 -0.016125
v 0.003016 -0.002479 -0.025563
v 0.004819 -0.002479 -0.037393
v 0.006864 -0.002479 -0.050817
v 0.009031 -0.002479 -0.065040
v 0.011198 -0.002479 -0.079262
v 0.013244 -0.002479 -0.092687
v 0.015046 -0.002479 -0.104517
v 0.016484 -0.002479 -0.113954
v 0.017436 -0.002479 -0.120201
v 0.017780 -0.002479 -0.122461
v 0.024860 -0.002479 -0.121146
v 0.031418 -0.002479 -0.119755
v 0.037535 -0.002479 -0.118255
v 0.043295 -0.002479 -0.116613
v 0.048780 -0.002479 -0.114798
v 0.054071 -0.002479 -0.112777
v 0.059251 -0.002479 -0.110518
v 0.064402 -0.002479 -0.107989
v 0.069607 -0.002479 -0.105158
v 0.074946 -0.002479 -0.101992
v 0.080504 -0.002479 -0.098459
v 0.086362 -0.002479 -0.094526
v 0.085026 -0.002479 -0.092680
v 0.081334 -0.002479 -0.087577
v 0.075756 -0.002479 -0.079867
v 0.068764 -0.002479 -0.070202
v 0.060830 -0.002479 -0.059235
v 0.052424 -0.002479 -0.047616
v 0.044018 -0.002479 -0.035997
v 0.036083 -0.002479 -0.025029
v 0.029092 -0.002479 -0.015365
v 0.023514 -0.002479 -0.007655
v 0.019821 -0.002479 -0.002551
v 0.018486 -0.002479 -0.000705
v 0.018455 -0.002479 -0.000700
v 0.018371 -0.002479 -0.000685
v 0.018243 -0.002479 -0.000661
v 0.018083 -0.002479 -0.000632
v 0.017902 -0.002479 -0.000599
v 0.017710 -0.002479 -0.000564
v 0.017518 -0.002479 -0.000529
v 0.017336 -0.002479 -0.000496
v 0.017176 -0.002479 -0.000467
v 0.017049 -0.002479 -0.000444
v 0.016964 -0.002479 -0.000429
vn -0.0000 -1.0000 -0.0000
vn -0.0000 1.0000 -0.0000
vn 0.3639 -0.9315 -0.0000
vn -0.3162 0.9487 -0.0000
vn -0.8321 0.5547 -0.0000
vn 1.0000 -0.0000 -0.0000
vn -0.2425 0.9701 -0.0000
vn 0.0995 0.9950 -0.0000
vn 0.1414 0.9899 -0.0000
vn -0.8102 -0.0000 -0.5861
vn 0.9886 -0.0000 0.1506
vn -0.4779 -0.0000 0.8784
vn -0.1788 -0.0000 -0.9839
vn -0.5100 -0.0000 0.8602
vn -0.2382 -0.0000 0.9712
vn -0.5365 -0.0000 0.8439
vn 0.5791 -0.0000 -0.8152
vn -0.1789 -0.0000 -0.9839
vn -0.5574 -0.0000 0.8303
vn -0.2741 -0.0000 0.9617
vn -0.8102 -0.0000 -0.5862
vn 0.6035 -0.0000 -0.7973
vn -0.3142 -0.0000 0.9494
vn 0.5483 -0.0000 -0.8363
vn 0.5112 -0.0000 -0.8595
vn 0.4689 -0.0000 -0.8833
vn -0.3568 -0.0000 0.9342
vn 0.4233 -0.0000 -0.9060
vn 0.3768 -0.0000 -0.9263
vn -0.3997 -0.0000 0.9166
vn -0.1826 -0.0000 0.9832
vn 0.3318 -0.0000 -0.9433
vn 0.2906 -0.0000 -0.9568
vn 0.2545 -0.0000 -0.9671
vn 0.2242 -0.0000 -0.9745
vn 0.1997 -0.0000 -0.9799
vn -0.2076 -0.0000 0.9782
vn -0.4407 -0.0000 0.8977
vt 0.389830 0.000000
vt 0.406780 0.000000
vt 0.423729 0.000000
vt 0.440678 0.000000
vt 0.372881 0.000000
vt 0.457627 0.000000
vt 0.474576 0.000000
vt 0.491525 0.000000
vt 0.508475 0.000000
vt 0.355932 0.000000
vt 0.525424 0.000000
vt 0.542373 0.000000
vt 0.559322 0.000000
vt 0.576271 0.000000
vt 0.338983 0.000000
vt 0.593220 0.000000
vt 0.610169 0.000000
vt 0.627119 0.000000
vt 0.322034 0.000000
vt 0.644068 0.000000
vt 0.661017 0.000000
vt 0.677966 0.000000
vt 0.305085 0.000000
vt 0.694915 0.000000
vt 0.288136 0.000000
vt 0.711864 0.000000
vt 0.271186 0.000000
vt 0.728814 0.000000
vt 0.254237 0.000000
vt 0.745763 0.000000
vt 0.237288 0.000000
vt 0.762712 0.000000
vt 0.220339 0.000000
vt 0.779661 0.000000
vt 0.203390 0.000000
vt 0.186441 0.000000
vt 0.169492 0.000000
vt 0.152542 0.000000
vt 0.796610 0.000000
vt 0.135593 0.000000
vt 0.118644 0.000000
vt 0.101695 0.000000
vt 0.084746 0.000000
vt 0.067797 0.000000
vt 0.050847 0.000000
vt 0.033898 0.000000
vt 0.813559 0.000000
vt 0.016949 0.000000
vt 0.000000 0.000000
vt 0.830508 0.000000
vt 0.881356 0.000000
vt 0.847458 0.000000
vt 0.864407 0.000000
vt 0.898305 0.000000
vt 0.915254 0.000000
vt 0.932203 0.000000
vt 0.949153 0.000000
vt 0.966102 0.000000
vt 0.983051 0.000000
vt 1.000000 0.000000
s 0
usemtl SVGMat.007
f 24/1/1 25/2/1 26/3/1
f 24/1/1 26/3/1 27/4/1
f 23/5/1 24/1/1 27/4/1
f 23/5/1 27/4/1 28/6/1
f 23/5/1 28/6/1 29/7/1
f 23/5/1 29/7/1 30/8/1
f 23/5/1 30/8/1 31/9/1
f 22/10/1 23/5/1 31/9/1
f 22/10/1 31/9/1 32/11/1
f 22/10/1 32/11/1 33/12/1
f 22/10/1 33/12/1 34/13/1
f 22/10/1 34/13/1 35/14/1
f 21/15/1 22/10/1 35/14/1
f 21/15/1 35/14/1 36/16/1
f 21/15/1 36/16/1 37/17/1
f 21/15/1 37/17/1 38/18/1
f 20/19/1 21/15/1 38/18/1
f 20/19/1 38/18/1 39/20/1
f 20/19/1 39/20/1 40/21/1
f 20/19/1 40/21/1 41/22/1
f 19/23/1 20/19/1 41/22/1
f 19/23/1 41/22/1 42/24/1
f 18/25/1 19/23/1 42/24/1
f 18/25/1 42/24/1 43/26/1
f 17/27/1 18/25/1 43/26/1
f 17/27/1 43/26/1 44/28/1
f 16/29/1 17/27/1 44/28/1
f 16/29/1 44/28/1 45/30/1
f 15/31/1 16/29/1 45/30/1
f 15/31/1 45/30/1 46/32/1
f 14/33/1 15/31/1 46/32/1
f 14/33/1 46/32/1 47/34/1
f 13/35/1 14/33/1 47/34/1
f 13/35/1 47/34/1 12/36/1
f 12/36/1 47/34/1 11/37/1
f 11/37/1 47/34/1 10/38/1
f 10/38/1 47/34/1 48/39/1
f 9/40/1 10/38/1 48/39/1
f 8/41/1 9/40/1 48/39/1
f 7/42/1 8/41/1 48/39/1
f 6/43/1 7/42/1 48/39/1
f 5/44/1 6/43/1 48/39/1
f 4/45/1 5/44/1 48/39/1
f 3/46/1 4/45/1 48/39/1
f 3/46/1 48/39/1 49/47/1
f 2/48/1 3/46/1 49/47/1
f 1/49/1 2/48/1 49/47/1
f 1/49/2 49/47/2 50/50/2
f 1/49/1 50/50/1 53/51/1
f 53/51/1 50/50/1 51/52/1
f 53/51/1 51/52/1 52/53/1
f 1/49/2 53/51/2 54/54/2
f 1/49/1 54/54/1 55/55/1
f 1/49/1 55/55/1 56/56/1
f 1/49/1 56/56/1 57/57/1
f 1/49/1 57/57/1 58/58/1
f 1/49/1 58/58/1 59/59/1
f 1/49/1 59/59/1 60/60/1
f 84/1/2 86/3/2 85/2/2
f 84/1/2 87/4/2 86/3/2
f 83/5/2 87/4/2 84/1/2
f 83/5/2 88/6/2 87/4/2
f 83/5/2 89/7/2 88/6/2
f 83/5/2 90/8/2 89/7/2
f 83/5/2 91/9/2 90/8/2
f 82/10/2 91/9/2 83/5/2
f 82/10/2 92/11/2 91/9/2
f 82/10/2 93/12/2 92/11/2
f 82/10/2 94/13/2 93/12/2
f 82/10/2 95/14/2 94/13/2
f 81/15/2 95/14/2 82/10/2
f 81/15/2 96/16/2 95/14/2
f 81/15/2 97/17/2 96/16/2
f 81/15/2 98/18/2 97/17/2
f 80/19/2 98/18/2 81/15/2
f 80/19/2 99/20/2 98/18/2
f 80/19/2 100/21/2 99/20/2
f 80/19/2 101/22/2 100/21/2
f 79/23/2 101/22/2 80/19/2
f 79/23/2 102/24/2 101/22/2
f 78/25/2 102/24/2 79/23/2
f 78/25/2 103/26/2 102/24/2
f 77/27/2 103/26/2 78/25/2
f 77/27/2 104/28/2 103/26/2
f 76/29/2 104/28/2 77/27/2
f 76/29/2 105/30/2 104/28/2
f 75/31/2 105/30/2 76/29/2
f 75/31/2 106/32/2 105/30/2
f 74/33/2 106/32/2 75/31/2
f 74/33/2 107/34/2 106/32/2
f 73/35/2 107/34/2 74/33/2
f 73/35/2 72/36/2 107/34/2
f 72/36/2 71/37/2 107/34/2
f 71/37/2 70/38/2 107/34/2
f 70/38/2 108/39/2 107/34/2
f 69/40/2 108/39/2 70/38/2
f 68/41/2 108/39/2 69/40/2
f 67/42/2 108/39/2 68/41/2
f 66/43/2 108/39/2 67/42/2
f 65/44/2 108/39/2 66/43/2
f 64/45/2 108/39/2 65/44/2
f 63/46/2 108/39/2 64/45/2
f 63/46/2 109/47/2 108/39/2
f 62/48/2 109/47/2 63/46/2
f 61/49/2 109/47/2 62/48/2
f 61/49/3 110/50/3 109/47/3
f 61/49/4 113/51/4 110/50/4
f 113/51/5 111/52/5 110/50/5
f 113/51/2 112/53/2 111/52/2
f 61/49/6 114/54/6 113/51/6
f 61/49/7 115/55/7 114/54/7
f 61/49/8 116/56/8 115/55/8
f 61/49/9 117/57/9 116/56/9
f 61/49/7 118/58/7 117/57/7
f 61/49/2 119/59/2 118/58/2
f 61/49/2 120/60/2 119/59/2
f 47/34/10 46/32/10 106/32/10 107/34/10
f 17/27/11 16/29/11 76/29/11 77/27/11
f 34/13/12 33/12/12 93/12/12 94/13/12
f 18/25/11 17/27/11 77/27/11 78/25/11
f 54/54/13 53/51/13 113/51/13 114/54/13
f 19/23/11 18/25/11 78/25/11 79/23/11
f 35/14/14 34/13/14 94/13/14 95/14/14
f 20/19/11 19/23/11 79/23/11 80/19/11
f 55/55/13 54/54/13 114/54/13 115/55/13
f 21/15/11 20/19/11 80/19/11 81/15/11
f 28/6/15 27/4/15 87/4/15 88/6/15
f 22/10/11 21/15/11 81/15/11 82/10/11
f 16/29/11 15/31/11 75/31/11 76/29/11
f 23/5/11 22/10/11 82/10/11 83/5/11
f 36/16/16 35/14/16 95/14/16 96/16/16
f 48/39/10 47/34/10 107/34/10 108/39/10
f 24/1/11 23/5/11 83/5/11 84/1/11
f 56/56/13 55/55/13 115/55/13 116/56/13
f 3/46/17 2/48/17 62/48/17 63/46/17
f 51/52/18 50/50/18 110/50/18 111/52/18
f 25/2/11 24/1/11 84/1/11 85/2/11
f 37/17/19 36/16/19 96/16/19 97/17/19
f 29/7/20 28/6/20 88/6/20 89/7/20
f 57/57/13 56/56/13 116/56/13 117/57/13
f 49/47/10 48/39/10 108/39/10 109/47/10
f 44/28/21 43/26/21 103/26/21 104/28/21
f 2/48/22 1/49/22 61/49/22 62/48/22
f 38/18/10 37/17/10 97/17/10 98/18/10
f 30/8/23 29/7/23 89/7/23 90/8/23
f 45/30/21 44/28/21 104/28/21 105/30/21
f 41/22/21 40/21/21 100/21/21 101/22/21
f 58/58/13 57/57/13 117/57/13 118/58/13
f 50/50/13 49/47/13 109/47/13 110/50/13
f 4/45/24 3/46/24 63/46/24 64/45/24
f 52/53/13 51/52/13 111/52/13 112/53/13
f 5/44/25 4/45/25 64/45/25 65/44/25
f 6/43/26 5/44/26 65/44/26 66/43/26
f 39/20/21 38/18/21 98/18/21 99/20/21
f 31/9/27 30/8/27 90/8/27 91/9/27
f 7/42/28 6/43/28 66/43/28 67/42/28
f 59/59/13 58/58/13 118/58/13 119/59/13
f 1/49/13 60/60/13 120/60/13 61/49/13
f 8/41/29 7/42/29 67/42/29 68/41/29
f 32/11/30 31/9/30 91/9/30 92/11/30
f 26/3/31 25/2/31 85/2/31 86/3/31
f 9/40/32 8/41/32 68/41/32 69/40/32
f 10/38/33 9/40/33 69/40/33 70/38/33
f 40/21/21 39/20/21 99/20/21 100/21/21
f 11/37/34 10/38/34 70/38/34 71/37/34
f 60/60/18 59/59/18 119/59/18 120/60/18
f 46/32/21 45/30/21 105/30/21 106/32/21
f 12/36/35 11/37/35 71/37/35 72/36/35
f 13/35/36 12/36/36 72/36/36 73/35/36
f 27/4/37 26/3/37 86/3/37 87/4/37
f 14/33/11 13/35/11 73/35/11 74/33/11
f 43/26/21 42/24/21 102/24/21 103/26/21
f 15/31/11 14/33/11 74/33/11 75/31/11
f 33/12/38 32/11/38 92/11/38 93/12/38
f 42/24/10 41/22/10 101/22/10 102/24/10
f 53/51/13 52/53/13 112/53/13 113/51/13
